<svg xmlns="http://www.w3.org/2000/svg" width="19.13" height="17.816" viewBox="0 0 19.13 17.816">
  <g id="Group_36" data-name="Group 36" transform="translate(0 0)">
    <path id="Path_9" data-name="Path 9" d="M586,690.22a1.832,1.832,0,0,1,.561-.839q3.47-3.462,6.934-6.93a2.889,2.889,0,0,1,3.565-.464,2.954,2.954,0,0,1,.58.467l1.9,1.9c.047.047.1.09.174.163,0-.39,0-.741,0-1.093a1.1,1.1,0,1,1,2.195.012c.007,1.033,0,2.067,0,3.1a.413.413,0,0,0,.134.325c.844.837,1.681,1.682,2.526,2.518a1.819,1.819,0,0,1,.561.839v.374a1.208,1.208,0,0,1-.593.775,1.064,1.064,0,0,1-1.19-.121,2.152,2.152,0,0,1-.206-.19l-7.01-7.01a.681.681,0,0,0-1.134,0l-7.05,7.049a1.105,1.105,0,0,1-1.421.236,1.269,1.269,0,0,1-.526-.741Z" transform="translate(-586 -681.573)" fill="#fff"/>
    <path id="Path_10" data-name="Path 10" d="M656.894,805.254c0-.76,0-1.519,0-2.278a.738.738,0,0,1,.23-.565q3.121-3.113,6.236-6.231a.554.554,0,0,1,.9,0q3.118,3.116,6.235,6.231a.723.723,0,0,1,.228.548c-.005,1.494,0,2.988,0,4.482a1.972,1.972,0,0,1-2.032,2.043c-.971.006-1.942,0-2.913,0-.148,0-.186-.042-.186-.188.005-1.494,0-2.988.007-4.482,0-.165-.034-.224-.213-.222q-1.578.013-3.156,0c-.161,0-.21.039-.209.206.007,1.494,0,2.988.008,4.482,0,.169-.048.2-.208.2-.952-.008-1.9,0-2.857,0a1.977,1.977,0,0,1-2.066-2.066Q656.892,806.337,656.894,805.254Z" transform="translate(-654.242 -791.674)" fill="#fff"/>
  </g>
</svg>
