<svg xmlns="http://www.w3.org/2000/svg" width="30.5" height="30.704" viewBox="0 0 30.5 30.704">
  <g id="vTnJwJ" transform="translate(-640.114 -716.921)">
    <g id="Group_35" data-name="Group 35" transform="translate(640.114 716.921)">
      <path id="Path_7" data-name="Path 7" d="M640.114,729.668c.194-4.336,1.758-7.993,5.388-10.585A11.72,11.72,0,0,1,651.256,717a12.094,12.094,0,0,1,8.38,1.976,12.571,12.571,0,0,1,5.562,8.846,12.8,12.8,0,0,1-3.379,10.942,11.574,11.574,0,0,1-5.983,3.354,12.08,12.08,0,0,1-11.109-2.544,12.607,12.607,0,0,1-4.436-7.933C640.195,731,640.172,730.339,640.114,729.668Zm23.141.166c0-.352.011-.705,0-1.057a5.739,5.739,0,0,0-.086-.674,11.255,11.255,0,0,0-4.465-7.245,9.631,9.631,0,0,0-6.815-1.917,9.937,9.937,0,0,0-6.613,2.845,10.808,10.808,0,0,0-3.01,10.5,9.526,9.526,0,0,0,3.284,5.552,10.931,10.931,0,0,0,10.663,2.13A10.5,10.5,0,0,0,663.255,729.834Z" transform="translate(-640.114 -716.921)" fill="#fff"/>
      <path id="Path_8" data-name="Path 8" d="M921.637,1007.3a2.854,2.854,0,0,1-2.378-1.033c-1.066-1.138-2.254-2.162-3.394-3.231a1.065,1.065,0,0,1-.4-1,.957.957,0,0,1,.7-.81,1.038,1.038,0,0,1,1.1.311q1.6,1.712,3.211,3.415a1.357,1.357,0,0,0,.868.487,1.329,1.329,0,0,0,1.335-.734,1.24,1.24,0,0,0-.245-1.462q-1.653-1.767-3.316-3.524a1.077,1.077,0,1,1,1.526-1.515c1.192,1.178,2.372,2.368,3.555,3.555a3.145,3.145,0,0,1,.763,1.245,3.3,3.3,0,0,1-2.977,4.3C921.857,1007.3,921.731,1007.3,921.637,1007.3Z" transform="translate(-894.623 -976.6)" fill="#fff"/>
    </g>
  </g>
</svg>
